<svg xmlns="http://www.w3.org/2000/svg" viewBox="0 0 32 32" width="1024" height="1024">
  <defs>
    <linearGradient id="rl-diamond-face-a" x1="0" y1="0" x2="1" y2="1">
      <stop offset="0%" stop-color="#f4f7fb" />
      <stop offset="45%" stop-color="#b9c6d6" />
      <stop offset="100%" stop-color="#7c8ba0" />
    </linearGradient>
    <linearGradient id="rl-diamond-face-b" x1="0" y1="0" x2="0" y2="1">
      <stop offset="0%" stop-color="#dde4ec" />
      <stop offset="100%" stop-color="#8f9dae" />
    </linearGradient>
    <linearGradient id="rl-diamond-face-c" x1="1" y1="0" x2="0" y2="1">
      <stop offset="0%" stop-color="#eef2f6" />
      <stop offset="100%" stop-color="#aab8c9" />
    </linearGradient>
    <linearGradient id="rl-diamond-face-d" x1="0" y1="1" x2="1" y2="0">
      <stop offset="0%" stop-color="#5f6d80" />
      <stop offset="100%" stop-color="#93a1b3" />
    </linearGradient>
  </defs>
  <!-- Top table facets -->
  <path d="M16 2 L24 10 L16 13 L8 10 Z" fill="url(#rl-diamond-face-b)" />
  <path d="M8 10 L16 13 L16 2 Z" fill="url(#rl-diamond-face-c)" opacity="0.9" />
  <path d="M16 2 L16 13 L24 10 Z" fill="url(#rl-diamond-face-a)" opacity="0.85" />
  <!-- Lower pavilion facets, tapering to the point -->
  <path d="M8 10 L16 13 L16 29 Z" fill="url(#rl-diamond-face-d)" />
  <path d="M24 10 L16 13 L16 29 Z" fill="url(#rl-diamond-face-a)" />
  <!-- Girdle highlight -->
  <path d="M8 10 L16 13 L24 10" fill="none" stroke="#ffffff" stroke-opacity="0.55" stroke-width="0.6" />
  <path d="M16 2 L8 10 M16 2 L24 10 M16 13 L16 29" stroke="#3c4757" stroke-opacity="0.35" stroke-width="0.4" fill="none" />
</svg>
